<svg fill="#0d141a" viewBox="0 0 176.387 18.607" height="100%" width="100%" xmlns="http://www.w3.org/2000/svg"><path preserveAspectRatio="none" d="M6.30 18.58Q4.53 18.58 3.13 18.01Q1.72 17.43 0.89 16.31Q0.05 15.18 0 13.59L0 13.59L4.19 13.59Q4.28 14.49 4.81 14.96Q5.34 15.43 6.19 15.43L6.19 15.43Q7.06 15.43 7.57 15.03Q8.07 14.63 8.07 13.91L8.07 13.91Q8.07 13.32 7.67 12.93Q7.27 12.53 6.68 12.28Q6.09 12.03 5.01 11.71L5.01 11.71Q3.45 11.22 2.46 10.74Q1.47 10.26 0.76 9.31Q0.05 8.37 0.05 6.85L0.05 6.85Q0.05 4.60 1.68 3.32Q3.31 2.05 5.93 2.05L5.93 2.05Q8.60 2.05 10.24 3.32Q11.87 4.60 11.98 6.88L11.98 6.88L7.73 6.88Q7.68 6.09 7.15 5.65Q6.62 5.20 5.80 5.20L5.80 5.20Q5.08 5.20 4.65 5.58Q4.21 5.96 4.21 6.67L4.21 6.67Q4.21 7.45 4.94 7.89Q5.68 8.33 7.25 8.83L7.25 8.83Q8.81 9.36 9.79 9.84Q10.76 10.33 11.48 11.25Q12.19 12.17 12.19 13.62L12.19 13.62Q12.19 15.00 11.49 16.12Q10.79 17.25 9.45 17.92Q8.12 18.58 6.30 18.58L6.30 18.58ZM16.58 4.25Q15.55 4.25 14.89 3.65Q14.24 3.04 14.24 2.14L14.24 2.14Q14.24 1.22 14.89 0.61Q15.55 0 16.58 0L16.58 0Q17.59 0 18.25 0.61Q18.91 1.22 18.91 2.14L18.91 2.14Q18.91 3.04 18.25 3.65Q17.59 4.25 16.58 4.25L16.58 4.25ZM14.61 5.59L18.54 5.59L18.54 18.42L14.61 18.42L14.61 5.59ZM37.77 5.45Q40.16 5.45 41.57 6.90Q42.99 8.35 42.99 10.92L42.99 10.92L42.99 18.42L39.08 18.42L39.08 11.45Q39.08 10.21 38.42 9.53Q37.77 8.85 36.62 8.85L36.62 8.85Q35.47 8.85 34.81 9.53Q34.16 10.21 34.16 11.45L34.16 11.45L34.16 18.42L30.24 18.42L30.24 11.45Q30.24 10.21 29.59 9.53Q28.93 8.85 27.78 8.85L27.78 8.85Q26.63 8.85 25.98 9.53Q25.32 10.21 25.32 11.45L25.32 11.45L25.32 18.42L21.39 18.42L21.39 5.59L25.32 5.59L25.32 7.20Q25.92 6.39 26.89 5.92Q27.85 5.45 29.07 5.45L29.07 5.45Q30.52 5.45 31.66 6.07Q32.80 6.69 33.44 7.84L33.44 7.84Q34.11 6.78 35.26 6.12Q36.41 5.45 37.77 5.45L37.77 5.45ZM51.59 18.61Q49.70 18.61 48.20 17.80Q46.69 17.00 45.83 15.50Q44.96 14.01 44.96 12.01L44.96 12.01Q44.96 10.03 45.84 8.52Q46.71 7.01 48.23 6.21Q49.75 5.40 51.63 5.40L51.63 5.40Q53.52 5.40 55.04 6.21Q56.56 7.01 57.43 8.52Q58.30 10.03 58.30 12.01L58.30 12.01Q58.30 13.98 57.42 15.49Q56.53 17.00 55.00 17.80Q53.47 18.61 51.59 18.61L51.59 18.61ZM51.59 15.20Q52.72 15.20 53.51 14.37Q54.30 13.55 54.30 12.01L54.30 12.01Q54.30 10.46 53.53 9.64Q52.76 8.81 51.63 8.81L51.63 8.81Q50.48 8.81 49.73 9.63Q48.97 10.44 48.97 12.01L48.97 12.01Q48.97 13.55 49.71 14.37Q50.46 15.20 51.59 15.20L51.59 15.20ZM68.22 5.45Q70.47 5.45 71.82 6.91Q73.16 8.37 73.16 10.92L73.16 10.92L73.16 18.42L69.25 18.42L69.25 11.45Q69.25 10.17 68.59 9.45Q67.92 8.74 66.79 8.74L66.79 8.74Q65.66 8.74 65.00 9.45Q64.33 10.17 64.33 11.45L64.33 11.45L64.33 18.42L60.40 18.42L60.40 5.59L64.33 5.59L64.33 7.29Q64.93 6.44 65.94 5.95Q66.95 5.45 68.22 5.45L68.22 5.45ZM88.00 11.80Q88.00 12.35 87.93 12.95L87.93 12.95L79.03 12.95Q79.12 14.14 79.80 14.78Q80.48 15.41 81.47 15.41L81.47 15.41Q82.94 15.41 83.51 14.17L83.51 14.17L87.70 14.17Q87.38 15.43 86.54 16.44Q85.70 17.46 84.43 18.03Q83.17 18.61 81.60 18.61L81.60 18.61Q79.72 18.61 78.25 17.80Q76.77 17.00 75.95 15.50Q75.12 14.01 75.12 12.01L75.12 12.01Q75.12 10.00 75.93 8.51Q76.75 7.01 78.22 6.21Q79.69 5.40 81.60 5.40L81.60 5.40Q83.47 5.40 84.92 6.19Q86.36 6.97 87.18 8.42Q88.00 9.87 88.00 11.80L88.00 11.80ZM79.05 10.76L83.97 10.76Q83.97 9.75 83.28 9.15Q82.59 8.56 81.56 8.56L81.56 8.56Q80.57 8.56 79.89 9.13Q79.21 9.71 79.05 10.76L79.05 10.76ZM94.28 10.33Q94.28 7.93 95.31 6.06Q96.35 4.19 98.20 3.14Q100.05 2.09 102.40 2.09L102.40 2.09Q105.27 2.09 107.32 3.61Q109.36 5.13 110.06 7.75L110.06 7.75L105.73 7.75Q105.25 6.74 104.36 6.21Q103.48 5.68 102.35 5.68L102.35 5.68Q100.53 5.68 99.41 6.95Q98.28 8.21 98.28 10.33L98.28 10.33Q98.28 12.44 99.41 13.71Q100.53 14.97 102.35 14.97L102.35 14.97Q103.48 14.97 104.36 14.44Q105.25 13.91 105.73 12.90L105.73 12.90L110.06 12.90Q109.36 15.52 107.32 17.03Q105.27 18.54 102.40 18.54L102.40 18.54Q100.05 18.54 98.20 17.49Q96.35 16.44 95.31 14.58Q94.28 12.72 94.28 10.33L94.28 10.33ZM111.69 11.98Q111.69 10.00 112.44 8.51Q113.18 7.01 114.47 6.21Q115.76 5.40 117.35 5.40L117.35 5.40Q118.70 5.40 119.73 5.96Q120.75 6.51 121.30 7.41L121.30 7.41L121.30 5.59L125.23 5.59L125.23 18.42L121.30 18.42L121.30 16.61Q120.73 17.50 119.70 18.05Q118.68 18.61 117.32 18.61L117.32 18.61Q115.76 18.61 114.47 17.79Q113.18 16.97 112.44 15.47Q111.69 13.96 111.69 11.98L111.69 11.98ZM121.30 12.01Q121.30 10.53 120.49 9.68Q119.67 8.83 118.50 8.83L118.50 8.83Q117.32 8.83 116.51 9.67Q115.69 10.51 115.69 11.98L115.69 11.98Q115.69 13.45 116.51 14.32Q117.32 15.18 118.50 15.18L118.50 15.18Q119.67 15.18 120.49 14.33Q121.30 13.48 121.30 12.01L121.30 12.01ZM128.09 1.40L132.02 1.40L132.02 18.42L128.09 18.42L128.09 1.40ZM136.85 4.25Q135.81 4.25 135.16 3.65Q134.50 3.04 134.50 2.14L134.50 2.14Q134.50 1.22 135.16 0.61Q135.81 0 136.85 0L136.85 0Q137.86 0 138.52 0.61Q139.17 1.22 139.17 2.14L139.17 2.14Q139.17 3.04 138.52 3.65Q137.86 4.25 136.85 4.25L136.85 4.25ZM134.87 5.59L138.81 5.59L138.81 18.42L134.87 18.42L134.87 5.59ZM146.88 18.61Q145.20 18.61 143.89 18.03Q142.58 17.46 141.82 16.46Q141.06 15.46 140.97 14.21L140.97 14.21L144.85 14.21Q144.92 14.88 145.47 15.29Q146.03 15.71 146.83 15.71L146.83 15.71Q147.57 15.71 147.97 15.42Q148.37 15.13 148.37 14.67L148.37 14.67Q148.37 14.12 147.80 13.86Q147.22 13.59 145.94 13.27L145.94 13.27Q144.56 12.95 143.63 12.59Q142.72 12.24 142.05 11.47Q141.38 10.69 141.38 9.38L141.38 9.38Q141.38 8.28 141.99 7.37Q142.60 6.46 143.78 5.93Q144.97 5.40 146.60 5.40L146.60 5.40Q149.02 5.40 150.41 6.60Q151.80 7.80 152.01 9.77L152.01 9.77L148.37 9.77Q148.28 9.11 147.79 8.72Q147.29 8.33 146.49 8.33L146.49 8.33Q145.80 8.33 145.43 8.59Q145.06 8.85 145.06 9.31L145.06 9.31Q145.06 9.87 145.65 10.14Q146.23 10.42 147.48 10.69L147.48 10.69Q148.90 11.06 149.80 11.42Q150.70 11.78 151.37 12.57Q152.05 13.36 152.08 14.70L152.08 14.70Q152.08 15.82 151.44 16.71Q150.81 17.59 149.63 18.10Q148.44 18.61 146.88 18.61L146.88 18.61ZM160.24 15.09L161.64 15.09L161.64 18.42L159.64 18.42Q157.50 18.42 156.31 17.38Q155.11 16.33 155.11 13.96L155.11 13.96L155.11 8.85L153.55 8.85L153.55 5.59L155.11 5.59L155.11 2.46L159.04 2.46L159.04 5.59L161.62 5.59L161.62 8.85L159.04 8.85L159.04 14.01Q159.04 14.58 159.32 14.83Q159.60 15.09 160.24 15.09L160.24 15.09ZM169.67 18.61Q167.78 18.61 166.28 17.80Q164.77 17.00 163.91 15.50Q163.05 14.01 163.05 12.01L163.05 12.01Q163.05 10.03 163.92 8.52Q164.79 7.01 166.31 6.21Q167.83 5.40 169.72 5.40L169.72 5.40Q171.60 5.40 173.12 6.21Q174.64 7.01 175.51 8.52Q176.39 10.03 176.39 12.01L176.39 12.01Q176.39 13.98 175.50 15.49Q174.62 17.00 173.09 17.80Q171.56 18.61 169.67 18.61L169.67 18.61ZM169.67 15.20Q170.80 15.20 171.59 14.37Q172.38 13.55 172.38 12.01L172.38 12.01Q172.38 10.46 171.61 9.64Q170.84 8.81 169.72 8.81L169.72 8.81Q168.57 8.81 167.81 9.63Q167.05 10.44 167.05 12.01L167.05 12.01Q167.05 13.55 167.80 14.37Q168.54 15.20 169.67 15.20L169.67 15.20Z"></path></svg>